District 9 (2009) DVDRip XviD-MAX (BEST QUALITY) 
http://torrents.thepiratebay.org/5136368/District_9_(2009)_DVDRip_XviD-MAX.5136368.TPB.torrent


District 9 (2009) ENGLISH TS XviD-MAX

Format                           : AVI
Format/Info                      : Audio Video Interleave
File size                        : 1.38 GiB
Duration                         : 1h 44mn
Overall bit rate                 : 1 880 Kbps
Writing library                  : TMPGEnc 4.0 XPress Version. 4.7.1.284
Original source form             : MAX TORRENTZ
Copyright                        : SIGISMUNT

Video
Format                           : MPEG-4 Visual
Format profile                   : Streaming Video@L1
Format settings, BVOP            : Yes
Format settings, QPel            : No
Format settings, GMC             : No warppoints
Format settings, Matrix          : Custom
Muxing mode                      : Packed bitstream
Codec ID                         : XVID
Codec ID/Hint                    : XviD
Duration                         : 1h 44mn
Bit rate                         : 1 712 Kbps
Width                            : 704 pixels
Height                           : 384 pixels
Display aspect ratio             : 16/9
Frame rate                       : 30.000 fps
Resolution                       : 24 bits
Colorimetry                      : 4:2:0
Scan type                        : Progressive
Bits/(Pixel*Frame)               : 0.211
Stream size                      : 1.25 GiB (91%)
Writing library                  : XviD 1.2.1 (UTC 2008-12-04)

Audio
Format                           : MPEG Audio
Format version                   : Version 1
Format profile                   : Layer 3
Codec ID                         : 55
Codec ID/Hint                    : MP3
Duration                         : 1h 44mn
Bit rate mode                    : Constant
Bit rate                         : 160 Kbps
Channel(s)                       : 2 channels
Sampling rate                    : 48.0 KHz
Resolution                       : 16 bits
Stream size                      : 120 MiB (9%)
Alignment                        : Split accross interleaves
Interleave, duration             : 250 ms (7.50 video frames)
Interleave, preload duration     : 212 ms
Writing library                  : LAME3.92 (alpha)

Screens:  
http://www.postimg.com/image/6000/5614.jpg  
http://www.postimg.com/image/6000/5615.jpg  
http://www.postimg.com/image/6000/5642.jpg 
http://www.postimg.com/image/6000/5617.jpg  
http://www.postimg.com/image/6000/5618.jpg

ScreenCaps: 
http://www.postimg.com/image/6000/5643.jpg


